# MagicaVoxel @ Ephtracy

# material
mtllib BlueBanner.mtl
usemtl palette

# normals
vn -1 0 0
vn 1 0 0
vn 0 0 1
vn 0 0 -1
vn 0 -1 0
vn 0 1 0

# texcoords
vt 0.00195313 0.5
vt 0.00585938 0.5
vt 0.00976563 0.5
vt 0.0136719 0.5
vt 0.0175781 0.5

# verts
v -3.5 6 1.5
v -3.5 6 0.5
v -3.5 6 -0.5
v -3.5 6 -1.5
v -3.5 7 0.5
v -3.5 7 -0.5
v -3.5 8 1.5
v -3.5 8 0.5
v -3.5 8 -0.5
v -3.5 8 -1.5
v -3.5 22 1.5
v -3.5 22 0.5
v -3.5 22 -0.5
v -3.5 22 -1.5
v -3.5 23 0.5
v -3.5 23 -0.5
v -1.5 0 0.5
v -1.5 0 -0.5
v -1.5 6 0.5
v -1.5 6 -0.5
v -1.5 7 0.5
v -1.5 7 -0.5
v -0.5 6 1.5
v -0.5 6 0.5
v -0.5 6 -0.5
v -0.5 6 -1.5
v -0.5 7 1.5
v -0.5 7 0.5
v -0.5 7 -0.5
v -0.5 7 -1.5
v -0.5 22 0.5
v -0.5 22 -0.5
v -0.5 23 0.5
v -0.5 23 -0.5
v 0.5 6 0.5
v 0.5 6 -0.5
v 0.5 7 0.5
v 0.5 7 -0.5
v 1.5 6 1.5
v 1.5 6 0.5
v 1.5 6 -0.5
v 1.5 6 -1.5
v 1.5 7 1.5
v 1.5 7 0.5
v 1.5 7 -0.5
v 1.5 7 -1.5
v 1.5 9 0.5
v 1.5 9 -0.5
v 1.5 10 0.5
v 1.5 10 -0.5
v 1.5 20 0.5
v 1.5 20 -0.5
v 1.5 21 0.5
v 1.5 21 -0.5
v 2.5 10 0.5
v 2.5 10 -0.5
v 2.5 16 0.5
v 2.5 16 -0.5
v 2.5 20 0.5
v 2.5 20 -0.5
v 2.5 22 0.5
v 2.5 22 -0.5
v 2.5 23 0.5
v 2.5 23 -0.5
v -2.5 10 0.5
v -2.5 10 -0.5
v -2.5 16 0.5
v -2.5 16 -0.5
v -2.5 20 0.5
v -2.5 20 -0.5
v -2.5 22 0.5
v -2.5 22 -0.5
v -2.5 23 0.5
v -2.5 23 -0.5
v -1.5 6 1.5
v -1.5 6 0.5
v -1.5 6 -0.5
v -1.5 6 -1.5
v -1.5 7 1.5
v -1.5 7 0.5
v -1.5 7 -0.5
v -1.5 7 -1.5
v -1.5 9 0.5
v -1.5 9 -0.5
v -1.5 10 0.5
v -1.5 10 -0.5
v -1.5 20 0.5
v -1.5 20 -0.5
v -1.5 21 0.5
v -1.5 21 -0.5
v -0.5 6 0.5
v -0.5 6 -0.5
v -0.5 7 0.5
v -0.5 7 -0.5
v 0.5 6 1.5
v 0.5 6 0.5
v 0.5 6 -0.5
v 0.5 6 -1.5
v 0.5 7 1.5
v 0.5 7 0.5
v 0.5 7 -0.5
v 0.5 7 -1.5
v 0.5 22 0.5
v 0.5 22 -0.5
v 0.5 23 0.5
v 0.5 23 -0.5
v 1.5 0 0.5
v 1.5 0 -0.5
v 1.5 6 0.5
v 1.5 6 -0.5
v 1.5 7 0.5
v 1.5 7 -0.5
v 3.5 6 1.5
v 3.5 6 0.5
v 3.5 6 -0.5
v 3.5 6 -1.5
v 3.5 7 0.5
v 3.5 7 -0.5
v 3.5 8 1.5
v 3.5 8 0.5
v 3.5 8 -0.5
v 3.5 8 -1.5
v 3.5 22 1.5
v 3.5 22 0.5
v 3.5 22 -0.5
v 3.5 22 -1.5
v 3.5 23 0.5
v 3.5 23 -0.5
v -3.5 6 1.5
v -3.5 8 1.5
v -3.5 22 1.5
v -2.5 7 1.5
v -2.5 8 1.5
v -2.5 16 1.5
v -2.5 21 1.5
v -1.5 6 1.5
v -1.5 7 1.5
v -1.5 15 1.5
v -1.5 16 1.5
v -1.5 20 1.5
v -0.5 6 1.5
v -0.5 7 1.5
v -0.5 8 1.5
v -0.5 14 1.5
v -0.5 15 1.5
v -0.5 16 1.5
v -0.5 17 1.5
v -0.5 19 1.5
v 0.5 6 1.5
v 0.5 7 1.5
v 0.5 8 1.5
v 0.5 14 1.5
v 0.5 15 1.5
v 0.5 16 1.5
v 0.5 17 1.5
v 0.5 19 1.5
v 1.5 6 1.5
v 1.5 7 1.5
v 1.5 15 1.5
v 1.5 16 1.5
v 1.5 20 1.5
v 2.5 7 1.5
v 2.5 8 1.5
v 2.5 16 1.5
v 2.5 21 1.5
v 3.5 6 1.5
v 3.5 8 1.5
v 3.5 22 1.5
v -3.5 22 0.5
v -3.5 23 0.5
v -2.5 22 0.5
v -2.5 23 0.5
v -1.5 0 0.5
v -1.5 6 0.5
v -1.5 7 0.5
v -0.5 6 0.5
v -0.5 7 0.5
v -0.5 22 0.5
v -0.5 23 0.5
v 0.5 6 0.5
v 0.5 7 0.5
v 0.5 22 0.5
v 0.5 23 0.5
v 1.5 0 0.5
v 1.5 6 0.5
v 1.5 7 0.5
v 2.5 22 0.5
v 2.5 23 0.5
v 3.5 22 0.5
v 3.5 23 0.5
v -3.5 6 -0.5
v -3.5 7 -0.5
v -2.5 10 -0.5
v -2.5 16 -0.5
v -2.5 20 -0.5
v -1.5 6 -0.5
v -1.5 7 -0.5
v -1.5 9 -0.5
v -1.5 10 -0.5
v -1.5 15 -0.5
v -1.5 16 -0.5
v -1.5 20 -0.5
v -1.5 21 -0.5
v -0.5 6 -0.5
v -0.5 7 -0.5
v -0.5 14 -0.5
v -0.5 15 -0.5
v -0.5 16 -0.5
v -0.5 17 -0.5
v -0.5 19 -0.5
v 0.5 6 -0.5
v 0.5 7 -0.5
v 0.5 14 -0.5
v 0.5 15 -0.5
v 0.5 16 -0.5
v 0.5 17 -0.5
v 0.5 19 -0.5
v 1.5 6 -0.5
v 1.5 7 -0.5
v 1.5 9 -0.5
v 1.5 10 -0.5
v 1.5 15 -0.5
v 1.5 16 -0.5
v 1.5 20 -0.5
v 1.5 21 -0.5
v 2.5 10 -0.5
v 2.5 16 -0.5
v 2.5 20 -0.5
v 3.5 6 -0.5
v 3.5 7 -0.5
v -3.5 6 0.5
v -3.5 7 0.5
v -2.5 10 0.5
v -2.5 16 0.5
v -2.5 20 0.5
v -1.5 6 0.5
v -1.5 7 0.5
v -1.5 9 0.5
v -1.5 10 0.5
v -1.5 15 0.5
v -1.5 16 0.5
v -1.5 20 0.5
v -1.5 21 0.5
v -0.5 6 0.5
v -0.5 7 0.5
v -0.5 14 0.5
v -0.5 15 0.5
v -0.5 16 0.5
v -0.5 17 0.5
v -0.5 19 0.5
v 0.5 6 0.5
v 0.5 7 0.5
v 0.5 14 0.5
v 0.5 15 0.5
v 0.5 16 0.5
v 0.5 17 0.5
v 0.5 19 0.5
v 1.5 6 0.5
v 1.5 7 0.5
v 1.5 9 0.5
v 1.5 10 0.5
v 1.5 15 0.5
v 1.5 16 0.5
v 1.5 20 0.5
v 1.5 21 0.5
v 2.5 10 0.5
v 2.5 16 0.5
v 2.5 20 0.5
v 3.5 6 0.5
v 3.5 7 0.5
v -3.5 22 -0.5
v -3.5 23 -0.5
v -2.5 22 -0.5
v -2.5 23 -0.5
v -1.5 0 -0.5
v -1.5 6 -0.5
v -1.5 7 -0.5
v -0.5 6 -0.5
v -0.5 7 -0.5
v -0.5 22 -0.5
v -0.5 23 -0.5
v 0.5 6 -0.5
v 0.5 7 -0.5
v 0.5 22 -0.5
v 0.5 23 -0.5
v 1.5 0 -0.5
v 1.5 6 -0.5
v 1.5 7 -0.5
v 2.5 22 -0.5
v 2.5 23 -0.5
v 3.5 22 -0.5
v 3.5 23 -0.5
v -3.5 6 -1.5
v -3.5 8 -1.5
v -3.5 22 -1.5
v -2.5 7 -1.5
v -2.5 8 -1.5
v -2.5 16 -1.5
v -2.5 21 -1.5
v -1.5 6 -1.5
v -1.5 7 -1.5
v -1.5 15 -1.5
v -1.5 16 -1.5
v -1.5 20 -1.5
v -0.5 6 -1.5
v -0.5 7 -1.5
v -0.5 8 -1.5
v -0.5 14 -1.5
v -0.5 15 -1.5
v -0.5 16 -1.5
v -0.5 17 -1.5
v -0.5 19 -1.5
v 0.5 6 -1.5
v 0.5 7 -1.5
v 0.5 8 -1.5
v 0.5 14 -1.5
v 0.5 15 -1.5
v 0.5 16 -1.5
v 0.5 17 -1.5
v 0.5 19 -1.5
v 1.5 6 -1.5
v 1.5 7 -1.5
v 1.5 15 -1.5
v 1.5 16 -1.5
v 1.5 20 -1.5
v 2.5 7 -1.5
v 2.5 8 -1.5
v 2.5 16 -1.5
v 2.5 21 -1.5
v 3.5 6 -1.5
v 3.5 8 -1.5
v 3.5 22 -1.5
v -1.5 0 0.5
v 1.5 0 0.5
v -1.5 0 -0.5
v 1.5 0 -0.5
v -3.5 6 1.5
v -1.5 6 1.5
v -0.5 6 1.5
v 0.5 6 1.5
v 1.5 6 1.5
v 3.5 6 1.5
v -3.5 6 0.5
v -1.5 6 0.5
v -0.5 6 0.5
v 0.5 6 0.5
v 1.5 6 0.5
v 3.5 6 0.5
v -3.5 6 -0.5
v -1.5 6 -0.5
v -0.5 6 -0.5
v 0.5 6 -0.5
v 1.5 6 -0.5
v 3.5 6 -0.5
v -3.5 6 -1.5
v -1.5 6 -1.5
v -0.5 6 -1.5
v 0.5 6 -1.5
v 1.5 6 -1.5
v 3.5 6 -1.5
v -1.5 7 1.5
v -0.5 7 1.5
v 0.5 7 1.5
v 1.5 7 1.5
v -3.5 7 0.5
v -1.5 7 0.5
v -0.5 7 0.5
v 0.5 7 0.5
v 1.5 7 0.5
v 3.5 7 0.5
v -3.5 7 -0.5
v -1.5 7 -0.5
v -0.5 7 -0.5
v 0.5 7 -0.5
v 1.5 7 -0.5
v 3.5 7 -0.5
v -1.5 7 -1.5
v -0.5 7 -1.5
v 0.5 7 -1.5
v 1.5 7 -1.5
v -2.5 20 0.5
v -1.5 20 0.5
v 1.5 20 0.5
v 2.5 20 0.5
v -2.5 20 -0.5
v -1.5 20 -0.5
v 1.5 20 -0.5
v 2.5 20 -0.5
v -1.5 21 0.5
v 1.5 21 0.5
v -1.5 21 -0.5
v 1.5 21 -0.5
v -0.5 6 0.5
v 0.5 6 0.5
v -0.5 6 -0.5
v 0.5 6 -0.5
v -1.5 9 0.5
v 1.5 9 0.5
v -1.5 9 -0.5
v 1.5 9 -0.5
v -2.5 10 0.5
v -1.5 10 0.5
v 1.5 10 0.5
v 2.5 10 0.5
v -2.5 10 -0.5
v -1.5 10 -0.5
v 1.5 10 -0.5
v 2.5 10 -0.5
v -3.5 22 1.5
v 3.5 22 1.5
v -3.5 22 0.5
v -2.5 22 0.5
v -0.5 22 0.5
v 0.5 22 0.5
v 2.5 22 0.5
v 3.5 22 0.5
v -3.5 22 -0.5
v -2.5 22 -0.5
v -0.5 22 -0.5
v 0.5 22 -0.5
v 2.5 22 -0.5
v 3.5 22 -0.5
v -3.5 22 -1.5
v 3.5 22 -1.5
v -3.5 23 0.5
v -2.5 23 0.5
v -0.5 23 0.5
v 0.5 23 0.5
v 2.5 23 0.5
v 3.5 23 0.5
v -3.5 23 -0.5
v -2.5 23 -0.5
v -0.5 23 -0.5
v 0.5 23 -0.5
v 2.5 23 -0.5
v 3.5 23 -0.5

# faces
f 5/3/1 2/3/1 1/3/1
f 6/3/1 4/3/1 3/3/1
f 7/3/1 5/3/1 1/3/1
f 8/1/1 6/1/1 5/1/1
f 8/3/1 5/3/1 7/3/1
f 9/3/1 4/3/1 6/3/1
f 9/1/1 6/1/1 8/1/1
f 10/3/1 4/3/1 9/3/1
f 11/2/1 8/2/1 7/2/1
f 12/1/1 9/1/1 8/1/1
f 12/2/1 8/2/1 11/2/1
f 13/2/1 10/2/1 9/2/1
f 13/1/1 9/1/1 12/1/1
f 14/2/1 10/2/1 13/2/1
f 15/1/1 13/1/1 12/1/1
f 16/1/1 13/1/1 15/1/1
f 19/5/1 18/5/1 17/5/1
f 20/5/1 18/5/1 19/5/1
f 21/1/1 20/1/1 19/1/1
f 22/1/1 20/1/1 21/1/1
f 27/3/1 24/3/1 23/3/1
f 28/3/1 24/3/1 27/3/1
f 29/3/1 26/3/1 25/3/1
f 30/3/1 26/3/1 29/3/1
f 33/1/1 32/1/1 31/1/1
f 34/1/1 32/1/1 33/1/1
f 37/1/1 36/1/1 35/1/1
f 38/1/1 36/1/1 37/1/1
f 43/3/1 40/3/1 39/3/1
f 44/3/1 40/3/1 43/3/1
f 45/3/1 42/3/1 41/3/1
f 46/3/1 42/3/1 45/3/1
f 49/1/1 48/1/1 47/1/1
f 50/1/1 48/1/1 49/1/1
f 53/1/1 52/1/1 51/1/1
f 54/1/1 52/1/1 53/1/1
f 57/1/1 56/1/1 55/1/1
f 58/1/1 56/1/1 57/1/1
f 59/1/1 58/1/1 57/1/1
f 60/1/1 58/1/1 59/1/1
f 63/1/1 62/1/1 61/1/1
f 64/1/1 62/1/1 63/1/1
f 65/1/2 66/1/2 67/1/2
f 67/1/2 66/1/2 68/1/2
f 67/1/2 68/1/2 69/1/2
f 69/1/2 68/1/2 70/1/2
f 71/1/2 72/1/2 73/1/2
f 73/1/2 72/1/2 74/1/2
f 75/3/2 76/3/2 79/3/2
f 79/3/2 76/3/2 80/3/2
f 77/3/2 78/3/2 81/3/2
f 81/3/2 78/3/2 82/3/2
f 83/1/2 84/1/2 85/1/2
f 85/1/2 84/1/2 86/1/2
f 87/1/2 88/1/2 89/1/2
f 89/1/2 88/1/2 90/1/2
f 91/1/2 92/1/2 93/1/2
f 93/1/2 92/1/2 94/1/2
f 95/3/2 96/3/2 99/3/2
f 99/3/2 96/3/2 100/3/2
f 97/3/2 98/3/2 101/3/2
f 101/3/2 98/3/2 102/3/2
f 103/1/2 104/1/2 105/1/2
f 105/1/2 104/1/2 106/1/2
f 107/5/2 108/5/2 109/5/2
f 109/5/2 108/5/2 110/5/2
f 109/1/2 110/1/2 111/1/2
f 111/1/2 110/1/2 112/1/2
f 113/3/2 114/3/2 117/3/2
f 115/3/2 116/3/2 118/3/2
f 113/3/2 117/3/2 119/3/2
f 117/1/2 118/1/2 120/1/2
f 119/3/2 117/3/2 120/3/2
f 118/3/2 116/3/2 121/3/2
f 120/1/2 118/1/2 121/1/2
f 121/3/2 116/3/2 122/3/2
f 119/2/2 120/2/2 123/2/2
f 120/1/2 121/1/2 124/1/2
f 123/2/2 120/2/2 124/2/2
f 121/2/2 122/2/2 125/2/2
f 124/1/2 121/1/2 125/1/2
f 125/2/2 122/2/2 126/2/2
f 124/1/2 125/1/2 127/1/2
f 127/1/2 125/1/2 128/1/2
f 132/3/3 130/3/3 129/3/3
f 133/2/3 131/2/3 130/2/3
f 133/3/3 130/3/3 132/3/3
f 134/2/3 131/2/3 133/2/3
f 135/2/3 131/2/3 134/2/3
f 136/3/3 132/3/3 129/3/3
f 137/2/3 133/2/3 132/2/3
f 137/3/3 132/3/3 136/3/3
f 137/2/3 134/2/3 133/2/3
f 138/2/3 134/2/3 137/2/3
f 139/3/3 135/3/3 134/3/3
f 139/2/3 134/2/3 138/2/3
f 140/3/3 135/3/3 139/3/3
f 142/2/3 138/2/3 137/2/3
f 143/2/3 138/2/3 142/2/3
f 144/2/3 138/2/3 143/2/3
f 145/3/3 139/3/3 138/3/3
f 145/2/3 138/2/3 144/2/3
f 146/4/3 140/4/3 139/4/3
f 146/3/3 139/3/3 145/3/3
f 147/4/3 140/4/3 146/4/3
f 148/4/3 140/4/3 147/4/3
f 149/3/3 142/3/3 141/3/3
f 149/3/3 143/3/3 142/3/3
f 150/3/3 143/3/3 149/3/3
f 151/2/3 144/2/3 143/2/3
f 151/3/3 143/3/3 150/3/3
f 152/3/3 145/3/3 144/3/3
f 152/2/3 144/2/3 151/2/3
f 153/4/3 146/4/3 145/4/3
f 153/3/3 145/3/3 152/3/3
f 153/4/3 147/4/3 146/4/3
f 154/4/3 147/4/3 153/4/3
f 155/3/3 148/3/3 147/3/3
f 155/4/3 147/4/3 154/4/3
f 156/4/3 140/4/3 148/4/3
f 156/3/3 148/3/3 155/3/3
f 158/2/3 151/2/3 150/2/3
f 158/2/3 152/2/3 151/2/3
f 158/2/3 153/2/3 152/2/3
f 159/3/3 154/3/3 153/3/3
f 159/2/3 153/2/3 158/2/3
f 160/4/3 156/4/3 155/4/3
f 160/3/3 154/3/3 159/3/3
f 160/4/3 155/4/3 154/4/3
f 161/3/3 135/3/3 140/3/3
f 161/4/3 156/4/3 160/4/3
f 161/4/3 140/4/3 156/4/3
f 162/2/3 159/2/3 158/2/3
f 162/2/3 160/2/3 159/2/3
f 162/3/3 158/3/3 157/3/3
f 163/2/3 160/2/3 162/2/3
f 164/3/3 161/3/3 160/3/3
f 164/2/3 160/2/3 163/2/3
f 165/2/3 131/2/3 135/2/3
f 165/3/3 161/3/3 164/3/3
f 165/3/3 135/3/3 161/3/3
f 166/3/3 162/3/3 157/3/3
f 166/3/3 163/3/3 162/3/3
f 167/2/3 164/2/3 163/2/3
f 167/3/3 163/3/3 166/3/3
f 167/2/3 165/2/3 164/2/3
f 168/2/3 131/2/3 165/2/3
f 168/2/3 165/2/3 167/2/3
f 171/1/3 170/1/3 169/1/3
f 172/1/3 170/1/3 171/1/3
f 176/5/3 174/5/3 173/5/3
f 176/1/3 175/1/3 174/1/3
f 177/1/3 175/1/3 176/1/3
f 180/5/3 176/5/3 173/5/3
f 182/1/3 179/1/3 178/1/3
f 183/1/3 179/1/3 182/1/3
f 184/5/3 180/5/3 173/5/3
f 185/1/3 181/1/3 180/1/3
f 185/5/3 180/5/3 184/5/3
f 186/1/3 181/1/3 185/1/3
f 189/1/3 188/1/3 187/1/3
f 190/1/3 188/1/3 189/1/3
f 196/3/3 192/3/3 191/3/3
f 197/3/3 192/3/3 196/3/3
f 199/2/3 194/2/3 193/2/3
f 200/2/3 194/2/3 199/2/3
f 201/3/3 195/3/3 194/3/3
f 201/2/3 194/2/3 200/2/3
f 202/3/3 195/3/3 201/3/3
f 206/2/3 200/2/3 199/2/3
f 206/2/3 199/2/3 198/2/3
f 207/3/3 201/3/3 200/3/3
f 207/2/3 200/2/3 206/2/3
f 208/4/3 202/4/3 201/4/3
f 208/3/3 201/3/3 207/3/3
f 209/4/3 202/4/3 208/4/3
f 210/4/3 202/4/3 209/4/3
f 211/3/3 205/3/3 204/3/3
f 212/3/3 205/3/3 211/3/3
f 213/3/3 207/3/3 206/3/3
f 213/2/3 206/2/3 198/2/3
f 214/4/3 208/4/3 207/4/3
f 214/3/3 207/3/3 213/3/3
f 214/4/3 209/4/3 208/4/3
f 215/4/3 209/4/3 214/4/3
f 216/3/3 210/3/3 209/3/3
f 216/4/3 209/4/3 215/4/3
f 217/4/3 202/4/3 210/4/3
f 217/3/3 210/3/3 216/3/3
f 220/2/3 213/2/3 198/2/3
f 220/2/3 214/2/3 213/2/3
f 221/2/3 214/2/3 220/2/3
f 222/3/3 215/3/3 214/3/3
f 222/2/3 214/2/3 221/2/3
f 223/4/3 216/4/3 215/4/3
f 223/3/3 215/3/3 222/3/3
f 223/4/3 217/4/3 216/4/3
f 224/3/3 203/3/3 202/3/3
f 224/4/3 217/4/3 223/4/3
f 224/4/3 202/4/3 217/4/3
f 225/3/3 203/3/3 224/3/3
f 226/2/3 222/2/3 221/2/3
f 226/2/3 223/2/3 222/2/3
f 227/3/3 224/3/3 223/3/3
f 227/2/3 223/2/3 226/2/3
f 228/3/3 224/3/3 227/3/3
f 229/3/3 219/3/3 218/3/3
f 230/3/3 219/3/3 229/3/3
f 231/3/4 232/3/4 236/3/4
f 236/3/4 232/3/4 237/3/4
f 233/2/4 234/2/4 239/2/4
f 239/2/4 234/2/4 240/2/4
f 234/3/4 235/3/4 241/3/4
f 240/2/4 234/2/4 241/2/4
f 241/3/4 235/3/4 242/3/4
f 239/2/4 240/2/4 246/2/4
f 238/2/4 239/2/4 246/2/4
f 240/3/4 241/3/4 247/3/4
f 246/2/4 240/2/4 247/2/4
f 241/4/4 242/4/4 248/4/4
f 247/3/4 241/3/4 248/3/4
f 248/4/4 242/4/4 249/4/4
f 249/4/4 242/4/4 250/4/4
f 244/3/4 245/3/4 251/3/4
f 251/3/4 245/3/4 252/3/4
f 246/3/4 247/3/4 253/3/4
f 238/2/4 246/2/4 253/2/4
f 247/4/4 248/4/4 254/4/4
f 253/3/4 247/3/4 254/3/4
f 248/4/4 249/4/4 254/4/4
f 254/4/4 249/4/4 255/4/4
f 249/3/4 250/3/4 256/3/4
f 255/4/4 249/4/4 256/4/4
f 250/4/4 242/4/4 257/4/4
f 256/3/4 250/3/4 257/3/4
f 238/2/4 253/2/4 260/2/4
f 253/2/4 254/2/4 260/2/4
f 260/2/4 254/2/4 261/2/4
f 254/3/4 255/3/4 262/3/4
f 261/2/4 254/2/4 262/2/4
f 255/4/4 256/4/4 263/4/4
f 262/3/4 255/3/4 263/3/4
f 256/4/4 257/4/4 263/4/4
f 242/3/4 243/3/4 264/3/4
f 263/4/4 257/4/4 264/4/4
f 257/4/4 242/4/4 264/4/4
f 264/3/4 243/3/4 265/3/4
f 261/2/4 262/2/4 266/2/4
f 262/2/4 263/2/4 266/2/4
f 263/3/4 264/3/4 267/3/4
f 266/2/4 263/2/4 267/2/4
f 267/3/4 264/3/4 268/3/4
f 258/3/4 259/3/4 269/3/4
f 269/3/4 259/3/4 270/3/4
f 271/1/4 272/1/4 273/1/4
f 273/1/4 272/1/4 274/1/4
f 275/5/4 276/5/4 278/5/4
f 276/1/4 277/1/4 278/1/4
f 278/1/4 277/1/4 279/1/4
f 275/5/4 278/5/4 282/5/4
f 280/1/4 281/1/4 284/1/4
f 284/1/4 281/1/4 285/1/4
f 275/5/4 282/5/4 286/5/4
f 282/1/4 283/1/4 287/1/4
f 286/5/4 282/5/4 287/5/4
f 287/1/4 283/1/4 288/1/4
f 289/1/4 290/1/4 291/1/4
f 291/1/4 290/1/4 292/1/4
f 293/3/4 294/3/4 296/3/4
f 294/2/4 295/2/4 297/2/4
f 296/3/4 294/3/4 297/3/4
f 297/2/4 295/2/4 298/2/4
f 298/2/4 295/2/4 299/2/4
f 293/3/4 296/3/4 300/3/4
f 296/2/4 297/2/4 301/2/4
f 300/3/4 296/3/4 301/3/4
f 297/2/4 298/2/4 301/2/4
f 301/2/4 298/2/4 302/2/4
f 298/3/4 299/3/4 303/3/4
f 302/2/4 298/2/4 303/2/4
f 303/3/4 299/3/4 304/3/4
f 301/2/4 302/2/4 306/2/4
f 306/2/4 302/2/4 307/2/4
f 307/2/4 302/2/4 308/2/4
f 302/3/4 303/3/4 309/3/4
f 308/2/4 302/2/4 309/2/4
f 303/4/4 304/4/4 310/4/4
f 309/3/4 303/3/4 310/3/4
f 310/4/4 304/4/4 311/4/4
f 311/4/4 304/4/4 312/4/4
f 305/3/4 306/3/4 313/3/4
f 306/3/4 307/3/4 313/3/4
f 313/3/4 307/3/4 314/3/4
f 307/2/4 308/2/4 315/2/4
f 314/3/4 307/3/4 315/3/4
f 308/3/4 309/3/4 316/3/4
f 315/2/4 308/2/4 316/2/4
f 309/4/4 310/4/4 317/4/4
f 316/3/4 309/3/4 317/3/4
f 310/4/4 311/4/4 317/4/4
f 317/4/4 311/4/4 318/4/4
f 311/3/4 312/3/4 319/3/4
f 318/4/4 311/4/4 319/4/4
f 312/4/4 304/4/4 320/4/4
f 319/3/4 312/3/4 320/3/4
f 314/2/4 315/2/4 322/2/4
f 315/2/4 316/2/4 322/2/4
f 316/2/4 317/2/4 322/2/4
f 317/3/4 318/3/4 323/3/4
f 322/2/4 317/2/4 323/2/4
f 319/4/4 320/4/4 324/4/4
f 323/3/4 318/3/4 324/3/4
f 318/4/4 319/4/4 324/4/4
f 304/3/4 299/3/4 325/3/4
f 324/4/4 320/4/4 325/4/4
f 320/4/4 304/4/4 325/4/4
f 322/2/4 323/2/4 326/2/4
f 323/2/4 324/2/4 326/2/4
f 321/3/4 322/3/4 326/3/4
f 326/2/4 324/2/4 327/2/4
f 324/3/4 325/3/4 328/3/4
f 327/2/4 324/2/4 328/2/4
f 299/2/4 295/2/4 329/2/4
f 328/3/4 325/3/4 329/3/4
f 325/3/4 299/3/4 329/3/4
f 321/3/4 326/3/4 330/3/4
f 326/3/4 327/3/4 330/3/4
f 327/2/4 328/2/4 331/2/4
f 330/3/4 327/3/4 331/3/4
f 328/2/4 329/2/4 331/2/4
f 329/2/4 295/2/4 332/2/4
f 331/2/4 329/2/4 332/2/4
f 335/5/5 334/5/5 333/5/5
f 336/5/5 334/5/5 335/5/5
f 343/3/5 338/3/5 337/3/5
f 344/3/5 338/3/5 343/3/5
f 345/3/5 340/3/5 339/3/5
f 346/3/5 340/3/5 345/3/5
f 347/3/5 342/3/5 341/3/5
f 348/3/5 342/3/5 347/3/5
f 355/3/5 350/3/5 349/3/5
f 356/3/5 350/3/5 355/3/5
f 357/3/5 352/3/5 351/3/5
f 358/3/5 352/3/5 357/3/5
f 359/3/5 354/3/5 353/3/5
f 360/3/5 354/3/5 359/3/5
f 366/2/5 362/2/5 361/2/5
f 367/2/5 362/2/5 366/2/5
f 368/2/5 364/2/5 363/2/5
f 369/2/5 364/2/5 368/2/5
f 371/1/5 366/1/5 365/1/5
f 372/1/5 366/1/5 371/1/5
f 373/1/5 368/1/5 367/1/5
f 374/1/5 368/1/5 373/1/5
f 375/1/5 370/1/5 369/1/5
f 376/1/5 370/1/5 375/1/5
f 377/2/5 373/2/5 372/2/5
f 378/2/5 373/2/5 377/2/5
f 379/2/5 375/2/5 374/2/5
f 380/2/5 375/2/5 379/2/5
f 385/1/5 382/1/5 381/1/5
f 386/1/5 382/1/5 385/1/5
f 387/1/5 384/1/5 383/1/5
f 388/1/5 384/1/5 387/1/5
f 391/1/5 390/1/5 389/1/5
f 392/1/5 390/1/5 391/1/5
f 393/5/6 394/5/6 395/5/6
f 395/5/6 394/5/6 396/5/6
f 397/1/6 398/1/6 399/1/6
f 399/1/6 398/1/6 400/1/6
f 401/1/6 402/1/6 405/1/6
f 405/1/6 402/1/6 406/1/6
f 403/1/6 404/1/6 407/1/6
f 407/1/6 404/1/6 408/1/6
f 409/2/6 410/2/6 411/2/6
f 411/2/6 410/2/6 412/2/6
f 412/2/6 410/2/6 413/2/6
f 413/2/6 410/2/6 414/2/6
f 414/2/6 410/2/6 415/2/6
f 415/2/6 410/2/6 416/2/6
f 412/1/6 413/1/6 418/1/6
f 418/1/6 413/1/6 419/1/6
f 414/1/6 415/1/6 420/1/6
f 420/1/6 415/1/6 421/1/6
f 418/2/6 419/2/6 423/2/6
f 421/2/6 422/2/6 423/2/6
f 420/2/6 421/2/6 423/2/6
f 419/2/6 420/2/6 423/2/6
f 417/2/6 418/2/6 423/2/6
f 423/2/6 422/2/6 424/2/6
f 425/1/6 426/1/6 431/1/6
f 431/1/6 426/1/6 432/1/6
f 427/1/6 428/1/6 433/1/6
f 433/1/6 428/1/6 434/1/6
f 429/1/6 430/1/6 435/1/6
f 435/1/6 430/1/6 436/1/6
