# MagicaVoxel @ ephtracy

# material
mtllib Knight1Torso.mtl
usemtl palette

# normals
vn -1 0 0
vn 1 0 0
vn 0 0 1
vn 0 0 -1
vn 0 -1 0
vn 0 1 0

# texcoords
vt 0.978516 0.5
vt 0.982422 0.5
vt 0.990234 0.5
vt 0.994141 0.5

# verts
v -4 1 5.5
v -4 1 -5.5
v -4 2 5.5
v -4 2 1.5
v -4 2 0.5
v -4 2 -0.5
v -4 2 -1.5
v -4 2 -5.5
v -4 3 2.5
v -4 3 1.5
v -4 3 -1.5
v -4 3 -2.5
v -4 4 3.5
v -4 4 2.5
v -4 4 -2.5
v -4 4 -3.5
v -4 6 4.5
v -4 6 3.5
v -4 6 -3.5
v -4 6 -4.5
v -4 11 4.5
v -4 11 1.5
v -4 11 0.5
v -4 11 -0.5
v -4 11 -1.5
v -4 11 -4.5
v -4 12 4.5
v -4 12 1.5
v -4 12 0.5
v -4 12 -0.5
v -4 12 -1.5
v -4 12 -4.5
v -4 15 4.5
v -4 15 1.5
v -4 15 0.5
v -4 15 -0.5
v -4 15 -1.5
v -4 15 -4.5
v -3 0 5.5
v -3 0 -5.5
v -3 1 6.5
v -3 1 5.5
v -3 1 -5.5
v -3 1 -6.5
v -3 2 6.5
v -3 2 5.5
v -3 2 1.5
v -3 2 -1.5
v -3 2 -5.5
v -3 2 -6.5
v -3 3 2.5
v -3 3 1.5
v -3 3 -1.5
v -3 3 -2.5
v -3 4 3.5
v -3 4 2.5
v -3 4 -2.5
v -3 4 -3.5
v -3 6 4.5
v -3 6 3.5
v -3 6 -3.5
v -3 6 -4.5
v -3 11 4.5
v -3 11 -4.5
v -3 12 4.5
v -3 12 -4.5
v -3 15 4.5
v -3 15 1.5
v -3 15 0.5
v -3 15 -0.5
v -3 15 -1.5
v -3 15 -4.5
v -3 16 5.5
v -3 16 -5.5
v 3 0 5.5
v 3 0 -5.5
v 3 1 5.5
v 3 1 -5.5
v 3 2 5.5
v 3 2 4.5
v 3 2 -4.5
v 3 2 -5.5
v 3 11 4.5
v 3 11 -4.5
v 3 12 4.5
v 3 12 -4.5
v 3 15 4.5
v 3 15 1.5
v 3 15 0.5
v 3 15 -0.5
v 3 15 -1.5
v 3 15 -4.5
v 3 16 5.5
v 3 16 -5.5
v 4 1 6.5
v 4 1 -6.5
v 4 2 6.5
v 4 2 4.5
v 4 2 1.5
v 4 2 0.5
v 4 2 -0.5
v 4 2 -1.5
v 4 2 -4.5
v 4 2 -6.5
v 4 11 4.5
v 4 11 1.5
v 4 11 0.5
v 4 11 -0.5
v 4 11 -1.5
v 4 11 -4.5
v 4 12 4.5
v 4 12 1.5
v 4 12 0.5
v 4 12 -0.5
v 4 12 -1.5
v 4 12 -4.5
v 4 15 4.5
v 4 15 1.5
v 4 15 0.5
v 4 15 -0.5
v 4 15 -1.5
v 4 15 -4.5
v -3 1 6.5
v -3 2 6.5
v 4 1 6.5
v 4 2 6.5
v -4 1 5.5
v -4 2 5.5
v -3 0 5.5
v -3 1 5.5
v -3 2 5.5
v -3 16 5.5
v 3 0 5.5
v 3 1 5.5
v 3 2 5.5
v 3 16 5.5
v -4 6 4.5
v -4 11 4.5
v -4 12 4.5
v -4 15 4.5
v -3 6 4.5
v -3 11 4.5
v -3 12 4.5
v -3 15 4.5
v 3 2 4.5
v 3 11 4.5
v 3 12 4.5
v 3 15 4.5
v 4 2 4.5
v 4 11 4.5
v 4 12 4.5
v 4 15 4.5
v -4 4 3.5
v -4 6 3.5
v -3 4 3.5
v -3 6 3.5
v -4 3 2.5
v -4 4 2.5
v -3 3 2.5
v -3 4 2.5
v -4 2 1.5
v -4 3 1.5
v -3 2 1.5
v -3 3 1.5
v -4 2 -1.5
v -4 3 -1.5
v -3 2 -1.5
v -3 3 -1.5
v -4 3 -2.5
v -4 4 -2.5
v -3 3 -2.5
v -3 4 -2.5
v -4 4 -3.5
v -4 6 -3.5
v -3 4 -3.5
v -3 6 -3.5
v -4 6 -4.5
v -4 11 -4.5
v -4 12 -4.5
v -4 15 -4.5
v -3 6 -4.5
v -3 11 -4.5
v -3 12 -4.5
v -3 15 -4.5
v 3 2 -4.5
v 3 11 -4.5
v 3 12 -4.5
v 3 15 -4.5
v 4 2 -4.5
v 4 11 -4.5
v 4 12 -4.5
v 4 15 -4.5
v -4 1 -5.5
v -4 2 -5.5
v -3 0 -5.5
v -3 1 -5.5
v -3 2 -5.5
v -3 16 -5.5
v 3 0 -5.5
v 3 1 -5.5
v 3 2 -5.5
v 3 16 -5.5
v -3 1 -6.5
v -3 2 -6.5
v 4 1 -6.5
v 4 2 -6.5
v -3 0 5.5
v 3 0 5.5
v -3 0 -5.5
v 3 0 -5.5
v -3 1 6.5
v 4 1 6.5
v -4 1 5.5
v -3 1 5.5
v 3 1 5.5
v -4 1 -5.5
v -3 1 -5.5
v 3 1 -5.5
v -3 1 -6.5
v 4 1 -6.5
v -4 3 2.5
v -3 3 2.5
v -4 3 1.5
v -3 3 1.5
v -4 3 -1.5
v -3 3 -1.5
v -4 3 -2.5
v -3 3 -2.5
v -4 4 3.5
v -3 4 3.5
v -4 4 2.5
v -3 4 2.5
v -4 4 -2.5
v -3 4 -2.5
v -4 4 -3.5
v -3 4 -3.5
v -4 6 4.5
v -3 6 4.5
v -4 6 3.5
v -3 6 3.5
v -4 6 -3.5
v -3 6 -3.5
v -4 6 -4.5
v -3 6 -4.5
v -3 2 6.5
v 4 2 6.5
v -4 2 5.5
v -3 2 5.5
v 3 2 5.5
v 3 2 4.5
v 4 2 4.5
v -4 2 1.5
v -3 2 1.5
v -4 2 -1.5
v -3 2 -1.5
v 3 2 -4.5
v 4 2 -4.5
v -4 2 -5.5
v -3 2 -5.5
v 3 2 -5.5
v -3 2 -6.5
v 4 2 -6.5
v -4 15 4.5
v -3 15 4.5
v 3 15 4.5
v 4 15 4.5
v -4 15 1.5
v -3 15 1.5
v 3 15 1.5
v 4 15 1.5
v -4 15 0.5
v -3 15 0.5
v 3 15 0.5
v 4 15 0.5
v -4 15 -0.5
v -3 15 -0.5
v 3 15 -0.5
v 4 15 -0.5
v -4 15 -1.5
v -3 15 -1.5
v 3 15 -1.5
v 4 15 -1.5
v -4 15 -4.5
v -3 15 -4.5
v 3 15 -4.5
v 4 15 -4.5
v -3 16 5.5
v 3 16 5.5
v -3 16 -5.5
v 3 16 -5.5

# faces
f 3/1/1 2/1/1 1/1/1
f 4/1/1 2/1/1 3/1/1
f 5/1/1 2/1/1 4/1/1
f 6/1/1 2/1/1 5/1/1
f 7/1/1 2/1/1 6/1/1
f 8/1/1 2/1/1 7/1/1
f 10/4/1 5/4/1 4/4/1
f 11/4/1 7/4/1 6/4/1
f 14/2/1 10/2/1 9/2/1
f 15/2/1 12/2/1 11/2/1
f 18/2/1 14/2/1 13/2/1
f 19/2/1 16/2/1 15/2/1
f 21/2/1 18/2/1 17/2/1
f 22/4/1 5/4/1 10/4/1
f 22/2/1 18/2/1 21/2/1
f 22/2/1 10/2/1 14/2/1
f 22/2/1 14/2/1 18/2/1
f 23/2/1 6/2/1 5/2/1
f 23/4/1 5/4/1 22/4/1
f 24/4/1 11/4/1 6/4/1
f 24/2/1 6/2/1 23/2/1
f 25/2/1 20/2/1 19/2/1
f 25/4/1 11/4/1 24/4/1
f 25/2/1 19/2/1 15/2/1
f 25/2/1 15/2/1 11/2/1
f 26/2/1 20/2/1 25/2/1
f 27/4/1 24/4/1 23/4/1
f 27/4/1 22/4/1 21/4/1
f 27/4/1 26/4/1 25/4/1
f 27/4/1 25/4/1 24/4/1
f 27/4/1 23/4/1 22/4/1
f 28/4/1 26/4/1 27/4/1
f 29/4/1 26/4/1 28/4/1
f 30/4/1 26/4/1 29/4/1
f 31/4/1 26/4/1 30/4/1
f 32/4/1 26/4/1 31/4/1
f 33/2/1 28/2/1 27/2/1
f 34/4/1 29/4/1 28/4/1
f 34/2/1 28/2/1 33/2/1
f 35/2/1 30/2/1 29/2/1
f 35/4/1 29/4/1 34/4/1
f 36/4/1 31/4/1 30/4/1
f 36/2/1 30/2/1 35/2/1
f 37/2/1 32/2/1 31/2/1
f 37/4/1 31/4/1 36/4/1
f 38/2/1 32/2/1 37/2/1
f 42/1/1 40/1/1 39/1/1
f 43/1/1 40/1/1 42/1/1
f 45/1/1 42/1/1 41/1/1
f 46/1/1 42/1/1 45/1/1
f 49/1/1 44/1/1 43/1/1
f 50/1/1 44/1/1 49/1/1
f 51/3/1 47/3/1 46/3/1
f 52/3/1 47/3/1 51/3/1
f 53/3/1 49/3/1 48/3/1
f 54/3/1 49/3/1 53/3/1
f 55/3/1 51/3/1 46/3/1
f 56/3/1 51/3/1 55/3/1
f 57/3/1 49/3/1 54/3/1
f 58/3/1 49/3/1 57/3/1
f 59/3/1 55/3/1 46/3/1
f 60/3/1 55/3/1 59/3/1
f 61/3/1 49/3/1 58/3/1
f 62/3/1 49/3/1 61/3/1
f 63/3/1 59/3/1 46/3/1
f 64/3/1 49/3/1 62/3/1
f 65/3/1 63/3/1 46/3/1
f 66/3/1 49/3/1 64/3/1
f 67/3/1 65/3/1 46/3/1
f 72/3/1 49/3/1 66/3/1
f 73/3/1 71/3/1 70/3/1
f 73/3/1 72/3/1 71/3/1
f 73/3/1 67/3/1 46/3/1
f 73/3/1 68/3/1 67/3/1
f 73/3/1 70/3/1 69/3/1
f 73/3/1 69/3/1 68/3/1
f 74/3/1 49/3/1 72/3/1
f 74/3/1 72/3/1 73/3/1
f 75/1/2 76/1/2 77/1/2
f 77/1/2 76/1/2 78/1/2
f 79/3/2 80/3/2 83/3/2
f 81/3/2 82/3/2 84/3/2
f 79/3/2 83/3/2 85/3/2
f 84/3/2 82/3/2 86/3/2
f 79/3/2 85/3/2 87/3/2
f 86/3/2 82/3/2 92/3/2
f 90/3/2 91/3/2 93/3/2
f 91/3/2 92/3/2 93/3/2
f 79/3/2 87/3/2 93/3/2
f 87/3/2 88/3/2 93/3/2
f 89/3/2 90/3/2 93/3/2
f 88/3/2 89/3/2 93/3/2
f 92/3/2 82/3/2 94/3/2
f 93/3/2 92/3/2 94/3/2
f 95/1/2 96/1/2 97/1/2
f 97/1/2 96/1/2 98/1/2
f 98/1/2 96/1/2 99/1/2
f 99/1/2 96/1/2 100/1/2
f 100/1/2 96/1/2 101/1/2
f 101/1/2 96/1/2 102/1/2
f 102/1/2 96/1/2 103/1/2
f 103/1/2 96/1/2 104/1/2
f 98/2/2 99/2/2 105/2/2
f 99/4/2 100/4/2 106/4/2
f 105/2/2 99/2/2 106/2/2
f 100/2/2 101/2/2 107/2/2
f 106/4/2 100/4/2 107/4/2
f 101/4/2 102/4/2 108/4/2
f 107/2/2 101/2/2 108/2/2
f 102/2/2 103/2/2 109/2/2
f 108/4/2 102/4/2 109/4/2
f 109/2/2 103/2/2 110/2/2
f 107/4/2 108/4/2 111/4/2
f 105/4/2 106/4/2 111/4/2
f 109/4/2 110/4/2 111/4/2
f 108/4/2 109/4/2 111/4/2
f 106/4/2 107/4/2 111/4/2
f 111/4/2 110/4/2 112/4/2
f 112/4/2 110/4/2 113/4/2
f 113/4/2 110/4/2 114/4/2
f 114/4/2 110/4/2 115/4/2
f 115/4/2 110/4/2 116/4/2
f 111/2/2 112/2/2 117/2/2
f 112/4/2 113/4/2 118/4/2
f 117/2/2 112/2/2 118/2/2
f 113/2/2 114/2/2 119/2/2
f 118/4/2 113/4/2 119/4/2
f 114/4/2 115/4/2 120/4/2
f 119/2/2 114/2/2 120/2/2
f 115/2/2 116/2/2 121/2/2
f 120/4/2 115/4/2 121/4/2
f 121/2/2 116/2/2 122/2/2
f 125/1/3 124/1/3 123/1/3
f 126/1/3 124/1/3 125/1/3
f 130/1/3 128/1/3 127/1/3
f 131/1/3 128/1/3 130/1/3
f 133/1/3 130/1/3 129/1/3
f 134/1/3 130/1/3 133/1/3
f 135/3/3 132/3/3 131/3/3
f 136/3/3 132/3/3 135/3/3
f 141/2/3 138/2/3 137/2/3
f 142/4/3 139/4/3 138/4/3
f 142/2/3 138/2/3 141/2/3
f 143/2/3 140/2/3 139/2/3
f 143/4/3 139/4/3 142/4/3
f 144/2/3 140/2/3 143/2/3
f 149/2/3 146/2/3 145/2/3
f 150/4/3 147/4/3 146/4/3
f 150/2/3 146/2/3 149/2/3
f 151/2/3 148/2/3 147/2/3
f 151/4/3 147/4/3 150/4/3
f 152/2/3 148/2/3 151/2/3
f 155/2/3 154/2/3 153/2/3
f 156/2/3 154/2/3 155/2/3
f 159/2/3 158/2/3 157/2/3
f 160/2/3 158/2/3 159/2/3
f 163/4/3 162/4/3 161/4/3
f 164/4/3 162/4/3 163/4/3
f 165/4/4 166/4/4 167/4/4
f 167/4/4 166/4/4 168/4/4
f 169/2/4 170/2/4 171/2/4
f 171/2/4 170/2/4 172/2/4
f 173/2/4 174/2/4 175/2/4
f 175/2/4 174/2/4 176/2/4
f 177/2/4 178/2/4 181/2/4
f 178/4/4 179/4/4 182/4/4
f 181/2/4 178/2/4 182/2/4
f 179/2/4 180/2/4 183/2/4
f 182/4/4 179/4/4 183/4/4
f 183/2/4 180/2/4 184/2/4
f 185/2/4 186/2/4 189/2/4
f 186/4/4 187/4/4 190/4/4
f 189/2/4 186/2/4 190/2/4
f 187/2/4 188/2/4 191/2/4
f 190/4/4 187/4/4 191/4/4
f 191/2/4 188/2/4 192/2/4
f 193/1/4 194/1/4 196/1/4
f 196/1/4 194/1/4 197/1/4
f 195/1/4 196/1/4 199/1/4
f 199/1/4 196/1/4 200/1/4
f 197/3/4 198/3/4 201/3/4
f 201/3/4 198/3/4 202/3/4
f 203/1/4 204/1/4 205/1/4
f 205/1/4 204/1/4 206/1/4
f 209/1/5 208/1/5 207/1/5
f 210/1/5 208/1/5 209/1/5
f 214/1/5 212/1/5 211/1/5
f 215/1/5 212/1/5 214/1/5
f 216/1/5 214/1/5 213/1/5
f 217/1/5 214/1/5 216/1/5
f 218/1/5 212/1/5 215/1/5
f 219/1/5 218/1/5 217/1/5
f 220/1/5 212/1/5 218/1/5
f 220/1/5 218/1/5 219/1/5
f 223/2/5 222/2/5 221/2/5
f 224/2/5 222/2/5 223/2/5
f 227/2/5 226/2/5 225/2/5
f 228/2/5 226/2/5 227/2/5
f 231/2/5 230/2/5 229/2/5
f 232/2/5 230/2/5 231/2/5
f 235/2/5 234/2/5 233/2/5
f 236/2/5 234/2/5 235/2/5
f 239/2/5 238/2/5 237/2/5
f 240/2/5 238/2/5 239/2/5
f 243/2/5 242/2/5 241/2/5
f 244/2/5 242/2/5 243/2/5
f 245/1/6 246/1/6 248/1/6
f 248/1/6 246/1/6 249/1/6
f 249/1/6 246/1/6 250/1/6
f 250/1/6 246/1/6 251/1/6
f 247/1/6 248/1/6 252/1/6
f 252/1/6 248/1/6 253/1/6
f 254/1/6 255/1/6 258/1/6
f 258/1/6 255/1/6 259/1/6
f 256/1/6 257/1/6 260/1/6
f 259/1/6 260/1/6 261/1/6
f 260/1/6 257/1/6 262/1/6
f 261/1/6 260/1/6 262/1/6
f 263/2/6 264/2/6 267/2/6
f 267/2/6 264/2/6 268/2/6
f 265/2/6 266/2/6 269/2/6
f 269/2/6 266/2/6 270/2/6
f 267/4/6 268/4/6 271/4/6
f 271/4/6 268/4/6 272/4/6
f 269/4/6 270/4/6 273/4/6
f 273/4/6 270/4/6 274/4/6
f 271/2/6 272/2/6 275/2/6
f 275/2/6 272/2/6 276/2/6
f 273/2/6 274/2/6 277/2/6
f 277/2/6 274/2/6 278/2/6
f 275/4/6 276/4/6 279/4/6
f 279/4/6 276/4/6 280/4/6
f 277/4/6 278/4/6 281/4/6
f 281/4/6 278/4/6 282/4/6
f 279/2/6 280/2/6 283/2/6
f 283/2/6 280/2/6 284/2/6
f 281/2/6 282/2/6 285/2/6
f 285/2/6 282/2/6 286/2/6
f 287/3/6 288/3/6 289/3/6
f 289/3/6 288/3/6 290/3/6
